# xmcd CD database file
#
# Track frame offsets:
#	150
#	14250
#	34850
#	50625
#	67137
#	83568
#	102996
#	117772
#	134719
#	154250
#	171915
#
# Disc length: 2583 seconds
#
# Revision: 0
# Processed by: cddbd v1.5.2PL0 Copyright (c) Steve Scherf et al.
# Submitted via: CDex 1.51
#
DISCID=970a150b
DTITLE=Real Surreal - Real Surreal
DYEAR=2002
DGENRE=Country
TTITLE0=Without Love
TTITLE1=The Way You Move Me
TTITLE2=What Happened to You
TTITLE3=If I Hadn't Reached For The Stars
TTITLE4=Nothin' That Good
TTITLE5=Sound of Rain
TTITLE6=High Time
TTITLE7=Fly Over the Wall
TTITLE8=Heaven's Door
TTITLE9=For You, My Everything
TTITLE10=Heal
EXTD=YEAR: 2002
EXTT0=
EXTT1=
EXTT2=
EXTT3=
EXTT4=
EXTT5=
EXTT6=
EXTT7=
EXTT8=
EXTT9=
EXTT10=
PLAYORDER=
